<?xml version="1.0" standalone="no"?>
<!DOCTYPE svg PUBLIC "-//W3C//DTD SVG 20010904//EN"
 "http://www.w3.org/TR/2001/REC-SVG-20010904/DTD/svg10.dtd">
<svg version="1.0" xmlns="http://www.w3.org/2000/svg"
 width="148.000000pt" height="148.000000pt" viewBox="0 0 148.000000 148.000000"
 preserveAspectRatio="xMidYMid meet">
<metadata>
Created by potrace 1.11, written by Peter Selinger 2001-2013
</metadata>
<g transform="translate(0.000000,148.000000) scale(0.100000,-0.100000)"
fill="#000000" stroke="none">
<path d="M730 1166 c-174 -80 -175 -82 -124 -196 70 -153 109 -225 125 -228 9
-2 45 10 80 27 35 16 103 47 152 69 117 54 117 40 -10 315 -32 68 -39 77 -62
76 -14 0 -87 -29 -161 -63z"/>
<path d="M355 994 c-157 -74 -165 -79 -165 -105 0 -19 114 -283 133 -306 16
-21 43 -15 140 30 50 24 115 54 144 66 80 37 80 44 7 206 -75 167 -79 175
-102 175 -9 0 -80 -30 -157 -66z"/>
<path d="M1020 837 c-14 -7 -74 -34 -135 -61 -138 -62 -138 -62 -132 -105 6
-47 121 -293 144 -308 15 -10 41 -1 168 56 98 45 152 76 158 89 10 23 9 27
-68 202 -62 142 -77 156 -135 127z"/>
<path d="M539 613 c-79 -36 -150 -70 -156 -75 -23 -19 -14 -58 49 -196 70
-155 74 -162 98 -162 23 0 303 128 312 143 4 7 8 20 8 30 0 29 -131 307 -149
317 -12 6 -57 -10 -162 -57z"/>
</g>
</svg>
